<?xml version="1.0" standalone="no"?>
<!DOCTYPE svg PUBLIC "-//W3C//DTD SVG 20010904//EN"
 "http://www.w3.org/TR/2001/REC-SVG-20010904/DTD/svg10.dtd">
<svg version="1.0" xmlns="http://www.w3.org/2000/svg"
 width="512.000000pt" height="512.000000pt" viewBox="0 0 512.000000 512.000000"
 preserveAspectRatio="xMidYMid meet">
<metadata>
Created by potrace 1.14, written by Peter Selinger 2001-2017
</metadata>
<g transform="translate(0.000000,512.000000) scale(0.100000,-0.100000)"
fill="#000000" stroke="none">
<path d="M2264 5043 c-15 -27 -33 -58 -40 -70 -26 -42 -71 -168 -83 -233 -7
-36 -16 -69 -21 -75 -20 -26 -40 -116 -40 -177 0 -38 -5 -78 -10 -89 -17 -31
-16 -132 4 -294 16 -134 16 -155 3 -193 -14 -39 -13 -44 2 -64 24 -29 15 -67
-18 -75 -14 -3 -62 -24 -106 -46 -63 -31 -94 -55 -145 -111 -36 -39 -108 -113
-160 -164 -74 -72 -99 -91 -115 -86 -11 3 -37 7 -57 9 -50 3 -68 20 -68 63 0
28 -3 33 -12 24 -20 -20 -31 -14 -24 13 4 15 2 25 -4 25 -7 0 -9 8 -5 20 9 29
0 25 -47 -22 -54 -54 -80 -103 -82 -149 0 -27 -4 -35 -15 -31 -10 4 -10 -1 3
-20 9 -13 13 -28 10 -31 -4 -4 -1 -14 6 -23 11 -12 11 -17 1 -23 -10 -6 -9
-10 3 -14 9 -4 16 -15 16 -25 0 -10 18 -37 40 -61 38 -41 40 -45 40 -110 0
-37 7 -93 15 -124 19 -72 19 -87 1 -87 -8 0 -16 -10 -18 -22 -2 -17 -9 -23
-25 -22 -23 1 -31 -20 -13 -31 6 -3 10 -11 10 -16 0 -6 -5 -7 -12 -3 -8 5 -9
2 -5 -9 4 -12 1 -17 -9 -17 -15 0 -15 -2 0 -25 9 -13 16 -40 16 -59 0 -19 6
-39 13 -43 43 -25 19 -124 -65 -268 -47 -81 -54 -84 -111 -44 -21 15 -28 17
-32 7 -9 -25 -25 -194 -25 -268 0 -41 -5 -92 -10 -112 -9 -29 -7 -48 5 -83 22
-65 19 -105 -15 -235 -41 -157 -57 -196 -86 -214 -13 -9 -24 -23 -24 -31 0 -8
-9 -19 -20 -25 -11 -6 -20 -18 -20 -26 0 -10 -8 -14 -22 -12 -19 2 -23 -1 -20
-23 1 -16 -6 -33 -18 -44 -20 -18 -21 -18 -44 4 -22 20 -31 22 -83 17 -32 -4
-86 -9 -121 -13 -34 -3 -62 -8 -62 -12 0 -3 34 -24 75 -45 69 -36 145 -98 145
-117 0 -4 -5 -20 -11 -36 -15 -40 -28 -181 -19 -213 4 -15 3 -37 -4 -51 -12
-28 -123 -180 -266 -362 -142 -184 -260 -339 -260 -343 0 -2 122 -4 270 -4
154 0 270 4 270 9 0 5 29 69 64 143 35 73 89 187 120 253 66 139 76 152 125
161 20 4 59 24 87 46 28 21 58 38 66 38 20 0 96 -51 132 -89 17 -17 34 -31 38
-31 9 0 4 65 -13 166 l-11 61 -46 14 c-36 11 -48 19 -50 37 -3 18 4 26 33 38
20 8 40 12 45 9 4 -3 15 -2 24 1 12 5 13 10 5 25 -5 11 -7 23 -4 28 3 5 -1 35
-10 66 -18 70 -10 135 21 178 12 18 48 75 80 127 32 52 78 117 102 144 23 27
41 55 38 62 -3 8 1 35 9 60 18 59 7 81 -42 90 -34 6 -40 4 -69 -30 -44 -51
-54 -46 -38 21 11 47 21 63 56 94 24 20 54 58 67 83 13 27 33 51 46 56 13 5
26 18 30 29 3 12 13 21 21 21 11 0 13 6 9 20 -4 11 -2 20 4 20 21 0 11 21 -14
30 -17 6 -27 20 -31 40 -5 25 -11 30 -35 30 -26 0 -29 4 -29 30 0 18 8 37 20
47 11 10 20 24 20 33 0 8 11 28 24 44 l23 30 25 -26 c13 -15 41 -65 61 -112
32 -74 37 -95 37 -164 0 -71 -2 -80 -20 -85 -14 -3 -20 -14 -20 -32 0 -35 -18
-68 -34 -62 -18 7 -49 -49 -41 -74 4 -11 2 -25 -3 -32 -11 -13 -24 -191 -15
-213 3 -8 14 -14 24 -14 23 0 24 -9 4 -37 -9 -12 -33 -74 -54 -138 -22 -63
-54 -145 -72 -181 -31 -65 -32 -72 -34 -203 -1 -93 -7 -158 -19 -206 -27 -105
-80 -209 -132 -258 -50 -48 -54 -63 -19 -79 28 -13 30 -19 13 -36 -14 -14 -38
-80 -38 -107 0 -11 -14 -40 -30 -64 -19 -27 -30 -57 -30 -78 l0 -33 530 0
c417 0 530 3 530 13 0 6 12 48 26 93 25 76 52 112 73 99 5 -3 26 -38 46 -77
21 -40 46 -85 57 -100 l19 -28 545 0 544 0 -5 23 c-5 18 -1 26 19 35 34 15 33
26 -9 75 -19 22 -35 44 -35 49 0 4 9 22 20 40 22 37 27 107 8 126 -7 7 -15 43
-19 81 -3 37 -15 88 -27 112 -11 24 -26 71 -33 104 -27 131 -140 427 -207 540
-18 31 -82 175 -98 222 -8 23 -19 75 -24 116 -9 71 -7 89 17 219 5 25 2 28
-22 28 l-28 0 7 56 6 57 -37 -6 c-52 -9 -68 3 -59 43 3 18 13 38 22 44 8 7 30
41 47 76 22 44 40 66 55 70 12 3 42 30 65 61 87 114 103 134 150 177 26 25 46
50 45 56 -3 12 29 53 85 109 27 26 39 47 41 72 6 61 18 55 51 -25 46 -112 141
-255 233 -351 50 -53 92 -99 92 -102 0 -4 -7 -7 -15 -7 -8 0 -15 -6 -15 -13 0
-10 -12 -12 -52 -7 -42 6 -55 4 -65 -9 -11 -14 -13 -13 -13 9 -2 24 -2 23 -16
-8 -21 -47 -9 -77 52 -129 61 -53 60 -79 -1 -50 -40 19 -65 22 -65 7 0 -20 36
-80 48 -80 6 0 12 -7 12 -15 0 -8 5 -14 12 -12 7 1 12 -6 13 -15 0 -27 71
-104 134 -147 49 -34 60 -47 69 -83 11 -40 10 -44 -12 -61 -14 -10 -34 -26
-47 -35 l-22 -18 47 -45 c48 -45 49 -49 42 -136 -3 -42 0 -58 15 -78 17 -21
19 -30 10 -62 -17 -61 -14 -99 11 -115 20 -14 21 -17 8 -61 -7 -26 -26 -68
-41 -93 -16 -24 -29 -57 -29 -72 0 -15 -7 -38 -16 -50 -8 -12 -12 -28 -8 -34
5 -7 7 -26 6 -42 -6 -69 58 -99 119 -55 25 17 29 27 29 65 0 29 4 44 13 44 6
0 43 -14 81 -30 95 -40 136 -80 83 -80 -27 0 -77 -21 -77 -33 0 -5 10 -23 22
-39 20 -28 20 -31 4 -40 -10 -5 -29 -23 -43 -39 -22 -24 -34 -29 -73 -29 -52
0 -64 -9 -73 -58 -8 -38 3 -45 93 -57 30 -4 58 -12 61 -17 3 -5 42 -12 85 -15
72 -5 84 -3 130 21 28 14 65 42 84 61 19 19 39 35 46 35 21 0 39 32 56 102 14
60 15 75 3 108 -23 65 12 160 70 190 17 8 37 22 45 32 16 17 16 13 -6 186 -4
26 -11 42 -20 42 -11 0 -10 9 5 43 23 52 41 126 41 172 0 18 4 37 10 40 6 3
10 15 10 26 0 10 9 28 20 39 11 11 20 31 20 44 0 13 7 27 16 30 27 10 9 31
-32 36 -35 5 -39 8 -42 37 -2 18 6 53 17 77 11 25 16 48 12 50 -4 3 -26 8 -49
12 l-41 6 -8 57 c-9 65 -8 159 1 283 8 116 -13 129 -47 28 -18 -54 -33 -54
-30 0 1 33 -2 39 -20 42 -16 2 -22 11 -24 33 -3 46 -12 75 -23 75 -6 0 -10
-13 -10 -30 0 -16 -4 -30 -10 -30 -5 0 -10 6 -10 14 0 8 -13 23 -30 33 -17 10
-30 26 -30 37 0 19 1 19 13 1 21 -28 31 -1 12 29 -17 26 -13 48 8 45 24 -3 37
1 37 12 0 6 -7 9 -15 6 -25 -10 -25 9 1 44 17 23 21 35 12 38 -6 2 -18 -6 -26
-18 -8 -11 -18 -21 -23 -21 -12 0 9 61 29 84 35 39 38 50 9 42 -22 -5 -26 -2
-32 24 -4 17 -11 30 -17 30 -5 0 -8 6 -5 13 4 12 -29 87 -39 87 -3 0 -4 -7 0
-15 6 -17 -9 -21 -19 -4 -12 18 -57 31 -69 19 -7 -7 -7 -10 1 -10 17 0 43 -29
43 -47 0 -14 -2 -14 -18 0 -21 19 -42 23 -24 5 30 -30 -11 -114 -43 -88 -20
16 -63 142 -75 218 -12 75 -77 220 -116 259 -18 18 -22 28 -15 37 6 7 8 16 4
20 -4 4 3 9 15 13 16 4 21 11 17 23 -5 16 6 26 29 28 5 1 14 16 20 34 7 20 18
33 28 33 24 0 49 37 37 56 -11 17 -12 52 -1 45 4 -2 14 0 22 6 12 8 12 9 -2 4
-12 -3 -24 3 -34 20 -16 24 -16 26 12 56 18 19 22 29 12 25 -17 -6 -53 25 -41
36 3 4 1 7 -5 7 -6 0 -15 -8 -21 -17 -9 -17 -11 -16 -30 1 -12 11 -21 24 -21
31 0 20 -36 45 -60 43 -12 -2 -25 3 -27 10 -3 7 4 12 17 12 l22 0 -23 19 -24
19 25 29 c34 38 52 72 45 83 -4 6 -3 16 2 23 11 17 11 61 0 68 -5 4 -4 16 3
29 11 20 10 22 -4 17 -12 -5 -16 0 -16 23 0 19 -5 30 -14 30 -7 0 -21 15 -29
33 -20 42 -140 157 -163 157 -16 0 -16 -2 2 -22 11 -13 19 -32 19 -43 0 -17
-6 -20 -37 -17 -48 4 -75 -10 -34 -18 16 -3 31 -11 34 -19 3 -10 0 -12 -12 -8
-14 6 -15 3 -5 -14 10 -19 8 -20 -11 -14 -17 5 -21 3 -18 -11 2 -12 -6 -20
-29 -26 -19 -5 -33 -15 -33 -23 0 -8 -4 -15 -9 -15 -5 0 -26 -16 -47 -35 -21
-19 -43 -35 -50 -35 -7 0 -14 -5 -16 -12 -6 -18 -63 14 -66 39 -2 11 -12 29
-23 39 -19 17 -23 17 -112 0 -131 -26 -229 -12 -389 55 -160 68 -215 66 -304
-7 -48 -39 -68 -44 -60 -14 3 11 8 29 12 40 3 10 7 74 9 142 2 90 9 143 25
198 27 89 30 139 15 200 -7 27 -9 67 -5 98 7 58 -9 169 -26 180 -6 4 -14 43
-18 87 -4 44 -16 110 -27 148 -28 93 -78 202 -88 191 -5 -5 -2 -49 5 -99 19
-118 22 -354 7 -479 -6 -54 -14 -100 -17 -103 -3 -3 -24 4 -48 15 -24 11 -50
22 -58 24 -11 4 -14 22 -11 89 4 125 -37 365 -62 356 -6 -2 -30 -64 -54 -138
-36 -113 -43 -147 -43 -219 l0 -85 -61 -23 c-33 -13 -64 -21 -67 -17 -12 11
-15 236 -4 274 17 59 69 411 60 411 -4 0 -19 -21 -34 -47z m233 -625 c-3 -8
-6 -5 -6 6 -1 11 2 17 5 13 3 -3 4 -12 1 -19z m258 -168 c-3 -5 -13 -10 -21
-10 -8 0 -14 5 -14 10 0 6 9 10 21 10 11 0 17 -4 14 -10z m-53 -22 c-14 -14
-52 -21 -52 -10 0 9 52 31 59 25 3 -2 -1 -9 -7 -15z m80 -30 c-7 -7 -12 -8
-12 -2 0 6 3 14 7 17 3 4 9 5 12 2 2 -3 -1 -11 -7 -17z m-82 -77 c0 -11 -59
-26 -67 -18 -3 3 10 10 28 16 19 5 35 10 37 10 1 1 2 -3 2 -8z m-110 -46 c-7
-8 -20 -15 -28 -15 -13 0 -12 3 4 15 25 19 40 19 24 0z m144 -77 c4 -17 2 -28
-4 -28 -5 0 -10 14 -10 32 0 36 4 35 14 -4z m-418 -75 c13 -8 21 -20 18 -25
-13 -20 -94 18 -94 45 0 12 45 1 76 -20z m304 22 c0 -15 -48 -45 -72 -45 -37
0 -35 13 5 33 31 15 67 22 67 12z m70 -89 c0 -3 -4 -8 -10 -11 -5 -3 -10 -1
-10 4 0 6 5 11 10 11 6 0 10 -2 10 -4z m1480 -496 c0 -5 -2 -10 -4 -10 -3 0
-8 5 -11 10 -3 6 -1 10 4 10 6 0 11 -4 11 -10z m80 -68 c0 -14 -39 -46 -47
-39 -3 4 2 16 13 26 20 21 34 26 34 13z m35 -73 c10 -32 -8 -43 -30 -19 -16
18 -17 23 -5 30 22 14 28 12 35 -11z m-57 -27 c2 -7 -3 -12 -10 -12 -8 0 -15
7 -15 15 0 18 19 15 25 -3z m12 -41 c0 -12 -20 -25 -27 -18 -7 7 6 27 18 27 5
0 9 -4 9 -9z m-960 -736 c13 -14 21 -25 18 -25 -2 0 -15 11 -28 25 -13 14 -21
25 -18 25 2 0 15 -11 28 -25z m180 -30 c-7 -8 -17 -15 -23 -15 -5 0 -2 9 8 20
21 23 35 19 15 -5z m-74 -15 c19 0 34 -4 34 -10 0 -16 -64 -12 -86 6 -17 14
-17 15 -1 10 10 -3 34 -6 53 -6z m1289 -340 c-3 -5 -11 -10 -16 -10 -6 0 -7 5
-4 10 3 6 11 10 16 10 6 0 7 -4 4 -10z m-25 -29 c0 -6 -11 -23 -25 -38 l-26
-28 22 38 c21 37 29 45 29 28z m-22 -132 c-7 -32 -13 -46 -16 -35 -4 19 18
100 25 93 2 -2 -2 -28 -9 -58z m79 4 c42 -99 57 -260 29 -299 -15 -19 -15 -18
-41 7 -22 22 -26 35 -29 105 -2 43 -7 92 -11 107 -8 30 12 117 27 117 5 0 16
-17 25 -37z m-1598 -37 c-2 -2 -20 -6 -39 -10 l-35 -6 35 14 c31 12 51 13 39
2z m108 -99 c7 -5 10 -13 7 -18 -9 -15 -41 -10 -48 7 -6 16 -14 16 -86 -2 -19
-5 -17 -1 10 14 36 20 91 20 117 -1z m-77 -57 c0 -11 -4 -20 -10 -20 -5 0 -10
9 -10 20 0 11 5 20 10 20 6 0 10 -9 10 -20z m1720 -296 c-8 -8 -23 -20 -34
-26 -19 -10 -18 -8 3 16 26 27 53 37 31 10z m-3995 -254 c3 -5 -1 -10 -9 -10
-8 0 -18 5 -21 10 -3 6 1 10 9 10 8 0 18 -4 21 -10z m3783 -196 c4 -29 -28
-41 -45 -18 -10 13 -10 21 -1 31 16 19 42 12 46 -13z m122 -15 c0 -6 -4 -7
-10 -4 -5 3 -10 11 -10 16 0 6 5 7 10 4 6 -3 10 -11 10 -16z m-3720 -9 c0 -5
-4 -10 -10 -10 -5 0 -10 5 -10 10 0 6 5 10 10 10 6 0 10 -4 10 -10z m3752 -60
c9 0 9 -3 0 -12 -15 -15 -32 5 -31 37 0 18 1 18 9 -2 5 -13 15 -23 22 -23z
m-122 -15 c0 -8 -7 -15 -15 -15 -16 0 -20 12 -8 23 11 12 23 8 23 -8z m-174
-70 c15 -33 18 -48 10 -54 -18 -15 -39 4 -31 28 5 17 3 20 -11 14 -14 -5 -16
-3 -11 11 4 10 7 24 7 32 0 26 15 13 36 -31z m90 -119 c10 -8 16 -17 13 -20
-3 -4 -17 2 -30 13 -27 23 -13 28 17 7z"/>
<path d="M5086 5021 c-15 -16 -28 -32 -27 -35 3 -18 0 -27 -8 -22 -5 4 -7 -3
-4 -14 3 -11 10 -23 15 -27 6 -3 -3 -11 -19 -18 -25 -11 -29 -17 -27 -46 4
-45 -4 -69 -22 -69 -17 0 -19 -36 -1 -43 9 -4 8 -8 -3 -16 -13 -10 -13 -11 0
-11 12 0 12 -2 2 -9 -11 -7 -10 -9 3 -15 12 -4 14 -12 10 -27 -6 -18 -4 -21 9
-16 9 4 16 2 16 -4 0 -17 34 -47 63 -54 l27 -7 0 231 c0 127 -1 231 -3 231 -2
0 -16 -13 -31 -29z"/>
<path d="M4990 4831 c0 -12 5 -21 10 -21 6 0 10 6 10 14 0 8 -4 18 -10 21 -5
3 -10 -3 -10 -14z"/>
<path d="M4578 2233 c6 -2 18 -2 25 0 6 3 1 5 -13 5 -14 0 -19 -2 -12 -5z"/>
</g>
</svg>
